<svg width="32" height="32" viewBox="0 0 32 32" fill="none" xmlns="http://www.w3.org/2000/svg">
<path d="M22.3906 20.5146C26.4086 18.5558 31.0898 21.4811 31.0898 25.9512C31.0898 29.2916 28.3824 31.9997 25.042 32H23.2676C19.6229 32 16.935 28.5946 17.7822 25.0498C18.1743 23.4098 19.2802 22.031 20.7959 21.292L22.3906 20.5146ZM8.50781 17.4561C10.0866 16.7223 11.9353 16.8747 13.373 17.8564C15.0339 18.9906 15.8408 21.0192 15.4131 22.9844L14.791 25.8438C14.0792 29.1137 11.2816 31.5135 7.94141 31.7197L6.7373 31.7939C3.08548 32.0192 0 29.1178 0 25.459C0.000144286 22.9897 1.43263 20.7448 3.67188 19.7041L8.50781 17.4561ZM26.5254 0C29.5488 0 32 2.45115 32 5.47461V6.10938C32 10.1796 29.533 13.8439 25.7617 15.375L23.082 16.4629C20.7964 17.3907 18.1964 17.0992 16.1729 15.6885C13.7113 13.9722 12.5529 10.9224 13.2549 8.00488L13.5254 6.87988C14.4967 2.84433 18.107 0.00017388 22.2578 0H26.5254ZM4.74707 3.16406C8.32978 2.75638 11.2379 6.01613 10.4258 9.5293L9.87598 11.9053C9.52966 13.4029 8.50639 14.6541 7.10742 15.291C3.83371 16.7812 0.115234 14.388 0.115234 10.791V8.35352C0.115234 5.69779 2.10838 3.46439 4.74707 3.16406Z" fill="#8E51FF"/>
</svg>
