<svg width="300" height="60" viewBox="0 0 300 60" fill="none" xmlns="http://www.w3.org/2000/svg">
<path d="M69.7305 35.3682C74.38 33.1048 79.7939 36.4909 79.7939 41.6621V52.915C79.7939 56.781 76.6599 59.915 72.7939 59.915H60.6006C56.0754 59.915 52.7393 55.686 53.793 51.2852L55.2334 45.2676C55.7209 43.2313 57.095 41.52 58.9775 40.6035L69.7305 35.3682ZM37.46 32.6807C40.4163 31.3089 43.8767 31.5935 46.5693 33.4297C49.686 35.5552 51.2007 39.36 50.3975 43.0459L48.5869 51.3516C47.6342 55.7213 43.8956 58.9269 39.4316 59.2021L32.1152 59.6533C26.3613 60.008 21.5 55.4367 21.5 49.6719V46.4717C21.5 42.5788 23.759 39.0392 27.29 37.4004L37.46 32.6807ZM71.5 0C77.0228 6.72124e-07 81.5 4.47715 81.5 10V17.3086C81.5 21.3807 79.0307 25.0463 75.2568 26.5762L62.9297 31.5732C59.7965 32.8433 56.2336 32.4445 53.459 30.5127L49.7793 27.9502C46.3972 25.5954 44.8059 21.4068 45.7715 17.4004L48.1201 7.65625C49.2029 3.16483 53.2217 0 57.8418 0H71.5ZM34.3252 5.47852C39.1279 4.93291 43.0249 9.30356 41.9346 14.0127L39.7676 23.375C39.2764 25.4956 37.8263 27.2671 35.8447 28.168L31.6133 30.0918C26.9787 32.1988 21.7161 28.8107 21.7158 23.7197V13.1611C21.7158 9.60101 24.3884 6.60809 27.9258 6.20605L34.3252 5.47852Z" fill="#8E51FF"/>
<path d="M110.456 30.18H121.208V34.34H110.456V30.18ZM110.84 42.5H105.656V20.1H122.584V24.26H110.84V42.5ZM125.429 42.5V25.284H130.197V30.148L129.525 28.74C130.037 27.524 130.858 26.6067 131.989 25.988C133.12 25.348 134.496 25.028 136.117 25.028V29.636C135.904 29.6147 135.712 29.604 135.541 29.604C135.37 29.5827 135.189 29.572 134.997 29.572C133.632 29.572 132.522 29.9667 131.669 30.756C130.837 31.524 130.421 32.7293 130.421 34.372V42.5H125.429ZM148.52 42.5V39.14L148.2 38.404V32.388C148.2 31.3213 147.87 30.4893 147.208 29.892C146.568 29.2947 145.576 28.996 144.232 28.996C143.315 28.996 142.408 29.1453 141.512 29.444C140.638 29.7213 139.891 30.1053 139.272 30.596L137.48 27.108C138.419 26.4467 139.55 25.9347 140.872 25.572C142.195 25.2093 143.539 25.028 144.904 25.028C147.528 25.028 149.566 25.6467 151.016 26.884C152.467 28.1213 153.192 30.052 153.192 32.676V42.5H148.52ZM143.272 42.756C141.928 42.756 140.776 42.532 139.816 42.084C138.856 41.6147 138.12 40.9853 137.608 40.196C137.096 39.4067 136.84 38.5213 136.84 37.54C136.84 36.516 137.086 35.62 137.576 34.852C138.088 34.084 138.888 33.4867 139.976 33.06C141.064 32.612 142.483 32.388 144.232 32.388H148.808V35.3H144.776C143.603 35.3 142.792 35.492 142.344 35.876C141.918 36.26 141.704 36.74 141.704 37.316C141.704 37.956 141.95 38.468 142.44 38.852C142.952 39.2147 143.646 39.396 144.52 39.396C145.352 39.396 146.099 39.204 146.76 38.82C147.422 38.4147 147.902 37.828 148.2 37.06L148.968 39.364C148.606 40.4733 147.944 41.316 146.984 41.892C146.024 42.468 144.787 42.756 143.272 42.756ZM165.931 48.964C164.31 48.964 162.742 48.7613 161.227 48.356C159.734 47.972 158.486 47.3853 157.483 46.596L159.467 43.012C160.193 43.6093 161.11 44.0787 162.219 44.42C163.35 44.7827 164.459 44.964 165.547 44.964C167.318 44.964 168.598 44.5693 169.387 43.78C170.198 42.9907 170.603 41.8173 170.603 40.26V37.668L170.923 33.348L170.859 28.996V25.284H175.595V39.62C175.595 42.82 174.763 45.1773 173.099 46.692C171.435 48.2067 169.046 48.964 165.931 48.964ZM165.163 41.668C163.563 41.668 162.113 41.3267 160.811 40.644C159.531 39.94 158.497 38.9693 157.707 37.732C156.939 36.4733 156.555 35.012 156.555 33.348C156.555 31.6627 156.939 30.2013 157.707 28.964C158.497 27.7053 159.531 26.7347 160.811 26.052C162.113 25.3693 163.563 25.028 165.163 25.028C166.614 25.028 167.894 25.3267 169.003 25.924C170.113 26.5 170.977 27.4067 171.595 28.644C172.214 29.86 172.523 31.428 172.523 33.348C172.523 35.2467 172.214 36.8147 171.595 38.052C170.977 39.268 170.113 40.1747 169.003 40.772C167.894 41.3693 166.614 41.668 165.163 41.668ZM166.155 37.572C167.03 37.572 167.809 37.4013 168.491 37.06C169.174 36.6973 169.707 36.196 170.091 35.556C170.475 34.916 170.667 34.18 170.667 33.348C170.667 32.4947 170.475 31.7587 170.091 31.14C169.707 30.5 169.174 30.0093 168.491 29.668C167.809 29.3053 167.03 29.124 166.155 29.124C165.281 29.124 164.502 29.3053 163.819 29.668C163.137 30.0093 162.593 30.5 162.187 31.14C161.803 31.7587 161.611 32.4947 161.611 33.348C161.611 34.18 161.803 34.916 162.187 35.556C162.593 36.196 163.137 36.6973 163.819 37.06C164.502 37.4013 165.281 37.572 166.155 37.572ZM202.29 25.028C203.655 25.028 204.86 25.3053 205.906 25.86C206.972 26.3933 207.804 27.2253 208.402 28.356C209.02 29.4653 209.33 30.8947 209.33 32.644V42.5H204.338V33.412C204.338 32.0253 204.05 31.0013 203.474 30.34C202.898 29.6787 202.087 29.348 201.042 29.348C200.316 29.348 199.666 29.5187 199.09 29.86C198.514 30.18 198.066 30.6707 197.746 31.332C197.426 31.9933 197.266 32.836 197.266 33.86V42.5H192.274V33.412C192.274 32.0253 191.986 31.0013 191.41 30.34C190.855 29.6787 190.055 29.348 189.01 29.348C188.284 29.348 187.634 29.5187 187.058 29.86C186.482 30.18 186.034 30.6707 185.714 31.332C185.394 31.9933 185.234 32.836 185.234 33.86V42.5H180.242V25.284H185.01V29.988L184.114 28.612C184.711 27.4387 185.554 26.5533 186.642 25.956C187.751 25.3373 189.01 25.028 190.418 25.028C191.996 25.028 193.372 25.4333 194.546 26.244C195.74 27.0333 196.53 28.2493 196.914 29.892L195.154 29.412C195.73 28.068 196.647 27.0013 197.906 26.212C199.186 25.4227 200.647 25.028 202.29 25.028ZM222.473 42.756C220.51 42.756 218.782 42.372 217.289 41.604C215.817 40.836 214.676 39.7907 213.865 38.468C213.054 37.124 212.649 35.5987 212.649 33.892C212.649 32.164 213.044 30.6387 213.833 29.316C214.644 27.972 215.742 26.9267 217.129 26.18C218.516 25.412 220.084 25.028 221.833 25.028C223.518 25.028 225.033 25.3907 226.377 26.116C227.742 26.82 228.82 27.844 229.609 29.188C230.398 30.5107 230.793 32.1 230.793 33.956C230.793 34.148 230.782 34.372 230.761 34.628C230.74 34.8627 230.718 35.0867 230.697 35.3H216.713V32.388H228.073L226.153 33.252C226.153 32.356 225.972 31.5773 225.609 30.916C225.246 30.2547 224.745 29.7427 224.105 29.38C223.465 28.996 222.718 28.804 221.865 28.804C221.012 28.804 220.254 28.996 219.593 29.38C218.953 29.7427 218.452 30.2653 218.089 30.948C217.726 31.6093 217.545 32.3987 217.545 33.316V34.084C217.545 35.0227 217.748 35.8547 218.153 36.58C218.58 37.284 219.166 37.828 219.913 38.212C220.681 38.5747 221.577 38.756 222.601 38.756C223.518 38.756 224.318 38.6173 225.001 38.34C225.705 38.0627 226.345 37.6467 226.921 37.092L229.577 39.972C228.788 40.868 227.796 41.5613 226.601 42.052C225.406 42.5213 224.03 42.756 222.473 42.756ZM244.581 25.028C245.946 25.028 247.162 25.3053 248.229 25.86C249.317 26.3933 250.17 27.2253 250.789 28.356C251.407 29.4653 251.717 30.8947 251.717 32.644V42.5H246.725V33.412C246.725 32.0253 246.415 31.0013 245.797 30.34C245.199 29.6787 244.346 29.348 243.237 29.348C242.447 29.348 241.733 29.5187 241.093 29.86C240.474 30.18 239.983 30.6813 239.621 31.364C239.279 32.0467 239.109 32.9213 239.109 33.988V42.5H234.117V25.284H238.885V30.052L237.989 28.612C238.607 27.46 239.493 26.5747 240.645 25.956C241.797 25.3373 243.109 25.028 244.581 25.028ZM263.282 42.756C261.255 42.756 259.676 42.244 258.546 41.22C257.415 40.1747 256.85 38.628 256.85 36.58V21.476H261.842V36.516C261.842 37.2413 262.034 37.8067 262.418 38.212C262.802 38.596 263.324 38.788 263.986 38.788C264.775 38.788 265.447 38.5747 266.002 38.148L267.346 41.668C266.834 42.0307 266.215 42.308 265.49 42.5C264.786 42.6707 264.05 42.756 263.282 42.756ZM254.194 29.508V25.668H266.13V29.508H254.194ZM275.94 42.756C274.468 42.756 273.049 42.5853 271.684 42.244C270.34 41.8813 269.273 41.4333 268.484 40.9L270.148 37.316C270.937 37.8067 271.865 38.212 272.932 38.532C274.02 38.8307 275.086 38.98 276.132 38.98C277.284 38.98 278.094 38.8413 278.564 38.564C279.054 38.2867 279.3 37.9027 279.3 37.412C279.3 37.0067 279.108 36.708 278.724 36.516C278.361 36.3027 277.87 36.1427 277.252 36.036C276.633 35.9293 275.95 35.8227 275.204 35.716C274.478 35.6093 273.742 35.4707 272.996 35.3C272.249 35.108 271.566 34.8307 270.948 34.468C270.329 34.1053 269.828 33.6147 269.444 32.996C269.081 32.3773 268.9 31.5773 268.9 30.596C268.9 29.508 269.209 28.548 269.828 27.716C270.468 26.884 271.385 26.2333 272.58 25.764C273.774 25.2733 275.204 25.028 276.868 25.028C278.041 25.028 279.236 25.156 280.452 25.412C281.668 25.668 282.681 26.0413 283.492 26.532L281.828 30.084C280.996 29.5933 280.153 29.2627 279.3 29.092C278.468 28.9 277.657 28.804 276.868 28.804C275.758 28.804 274.948 28.9533 274.436 29.252C273.924 29.5507 273.668 29.9347 273.668 30.404C273.668 30.8307 273.849 31.1507 274.212 31.364C274.596 31.5773 275.097 31.748 275.716 31.876C276.334 32.004 277.006 32.1213 277.732 32.228C278.478 32.3133 279.225 32.452 279.972 32.644C280.718 32.836 281.39 33.1133 281.988 33.476C282.606 33.8173 283.108 34.2973 283.492 34.916C283.876 35.5133 284.068 36.3027 284.068 37.284C284.068 38.3507 283.748 39.3 283.108 40.132C282.468 40.9427 281.54 41.5827 280.324 42.052C279.129 42.5213 277.668 42.756 275.94 42.756Z" fill="white"/>
</svg>
