<svg width="60" height="60" viewBox="0 0 60 60" fill="none" xmlns="http://www.w3.org/2000/svg">
<path d="M48.2305 35.3682C52.88 33.1048 58.2939 36.4909 58.2939 41.6621V52.915C58.2939 56.781 55.1599 59.915 51.2939 59.915H39.1006C34.5754 59.915 31.2393 55.686 32.293 51.2852L33.7334 45.2676C34.2209 43.2313 35.595 41.52 37.4775 40.6035L48.2305 35.3682ZM15.96 32.6807C18.9163 31.3089 22.3767 31.5935 25.0693 33.4297C28.186 35.5552 29.7007 39.36 28.8975 43.0459L27.0869 51.3516C26.1342 55.7213 22.3956 58.9269 17.9316 59.2021L10.6152 59.6533C4.86134 60.008 0 55.4367 0 49.6719V46.4717C0 42.5788 2.25898 39.0392 5.79004 37.4004L15.96 32.6807ZM50 0C55.5228 6.72124e-07 60 4.47715 60 10V17.3086C60 21.3807 57.5307 25.0463 53.7568 26.5762L41.4297 31.5732C38.2965 32.8433 34.7336 32.4445 31.959 30.5127L28.2793 27.9502C24.8972 25.5954 23.3059 21.4068 24.2715 17.4004L26.6201 7.65625C27.7029 3.16483 31.7217 0 36.3418 0H50ZM12.8252 5.47852C17.6279 4.93291 21.5249 9.30356 20.4346 14.0127L18.2676 23.375C17.7764 25.4956 16.3263 27.2671 14.3447 28.168L10.1133 30.0918C5.47866 32.1988 0.216076 28.8107 0.21582 23.7197V13.1611C0.21582 9.60101 2.88843 6.60809 6.42578 6.20605L12.8252 5.47852Z" fill="#8E51FF"/>
</svg>
